<svg width="1280" height="85" viewBox="0 0 1280 85" fill="none" xmlns="http://www.w3.org/2000/svg">
<path d="M1208 0H1255.2V61.4C1255.2 74.4339 1244.63 85 1231.6 85C1218.57 85 1208 74.4339 1208 61.4V0Z" fill="#E25565"/>
<path d="M1161 0H1208.2V61.4C1208.2 74.4339 1197.63 85 1184.6 85C1171.57 85 1161 74.4339 1161 61.4V0Z" fill="white"/>
<path d="M1255 0H1302.2V61.4C1302.2 74.4339 1291.63 85 1278.6 85C1265.57 85 1255 74.4339 1255 61.4V0Z" fill="white"/>
<path d="M880 0H927.2V61.4C927.2 74.4339 916.634 85 903.6 85C890.566 85 880 74.4339 880 61.4V0Z" fill="white"/>
<path d="M692 0H739.2V61.4C739.2 74.4339 728.634 85 715.6 85C702.566 85 692 74.4339 692 61.4V0Z" fill="white"/>
<path d="M504 0H551.2V61.4C551.2 74.4339 540.634 85 527.6 85C514.566 85 504 74.4339 504 61.4V0Z" fill="white"/>
<path d="M316 0H363.2V61.4C363.2 74.4339 352.634 85 339.6 85C326.566 85 316 74.4339 316 61.4V0Z" fill="white"/>
<path d="M128 0H175.2V61.4C175.2 74.4339 164.634 85 151.6 85C138.566 85 128 74.4339 128 61.4V0Z" fill="white"/>
<path d="M1021 0H1068.2V61.4C1068.2 74.4339 1057.63 85 1044.6 85C1031.57 85 1021 74.4339 1021 61.4V0Z" fill="#E25565"/>
<path d="M833 0H880.2V61.4C880.2 74.4339 869.634 85 856.6 85C843.566 85 833 74.4339 833 61.4V0Z" fill="#E25565"/>
<path d="M645 0H692.2V61.4C692.2 74.4339 681.634 85 668.6 85C655.566 85 645 74.4339 645 61.4V0Z" fill="#E25565"/>
<path d="M457 0H504.2V61.4C504.2 74.4339 493.634 85 480.6 85C467.566 85 457 74.4339 457 61.4V0Z" fill="#E25565"/>
<path d="M269 0H316.2V61.4C316.2 74.4339 305.634 85 292.6 85C279.566 85 269 74.4339 269 61.4V0Z" fill="#E25565"/>
<path d="M81 0H128.2V61.4C128.2 74.4339 117.634 85 104.6 85C91.5661 85 81 74.4339 81 61.4V0Z" fill="#E25565"/>
<path d="M974 0H1021.2V61.4C1021.2 74.4339 1010.63 85 997.6 85C984.566 85 974 74.4339 974 61.4V0Z" fill="white"/>
<path d="M786 0H833.2V61.4C833.2 74.4339 822.634 85 809.6 85C796.566 85 786 74.4339 786 61.4V0Z" fill="white"/>
<path d="M598 0H645.2V61.4C645.2 74.4339 634.634 85 621.6 85C608.566 85 598 74.4339 598 61.4V0Z" fill="white"/>
<path d="M410 0H457.2V61.4C457.2 74.4339 446.634 85 433.6 85C420.566 85 410 74.4339 410 61.4V0Z" fill="white"/>
<path d="M222 0H269.2V61.4C269.2 74.4339 258.634 85 245.6 85C232.566 85 222 74.4339 222 61.4V0Z" fill="white"/>
<path d="M34 0H81.2V61.4C81.2 74.4339 70.6339 85 57.6 85C44.5661 85 34 74.4339 34 61.4V0Z" fill="white"/>
<path d="M-13 0H34.2V61.4C34.2 74.4339 23.6339 85 10.6 85C-2.43392 85 -13 74.4339 -13 61.4V0Z" fill="#E25565"/>
<path d="M1115 0H1162.2V61.4C1162.2 74.4339 1151.63 85 1138.6 85C1125.57 85 1115 74.4339 1115 61.4V0Z" fill="#E25565"/>
<path d="M927 0H974.2V61.4C974.2 74.4339 963.634 85 950.6 85C937.566 85 927 74.4339 927 61.4V0Z" fill="#E25565"/>
<path d="M739 0H786.2V61.4C786.2 74.4339 775.634 85 762.6 85C749.566 85 739 74.4339 739 61.4V0Z" fill="#E25565"/>
<path d="M551 0H598.2V61.4C598.2 74.4339 587.634 85 574.6 85C561.566 85 551 74.4339 551 61.4V0Z" fill="#E25565"/>
<path d="M363 0H410.2V61.4C410.2 74.4339 399.634 85 386.6 85C373.566 85 363 74.4339 363 61.4V0Z" fill="#E25565"/>
<path d="M175 0H222.2V61.4C222.2 74.4339 211.634 85 198.6 85C185.566 85 175 74.4339 175 61.4V0Z" fill="#E25565"/>
<path d="M1068 0H1115.2V61.4C1115.2 74.4339 1104.63 85 1091.6 85C1078.57 85 1068 74.4339 1068 61.4V0Z" fill="white"/>
</svg>
